<?xml version="1.0" encoding="utf-8"?>
<!-- Generator: Adobe Illustrator 22.0.1, SVG Export Plug-In . SVG Version: 6.00 Build 0)  -->
<svg version="1.1" id="Capa_1" xmlns="http://www.w3.org/2000/svg" xmlns:xlink="http://www.w3.org/1999/xlink" x="0px" y="0px"
	 viewBox="0 0 21 21" style="enable-background:new 0 0 21 21;" xml:space="preserve">
<style type="text/css">
	.st0{fill:#BFC2C7;}
</style>
<g>
	<g>
		<path class="st0" d="M1,8.4l2.7,1.9c0.1,0.1,0.3,0.1,0.5,0.1c0.2,0,0.3,0,0.5-0.1l2.7-1.9c0.2-0.2,0.2-0.3-0.1-0.3h-3h-3
			C0.8,8.1,0.8,8.2,1,8.4z"/>
		<path class="st0" d="M7.5,8.9l-3,2c-0.1,0.1-0.3,0.1-0.4,0.1c-0.1,0-0.3,0-0.4-0.1l-3-2C0.6,8.8,0.4,8.8,0.4,9.1v3.3
			c0,0.2,0.2,0.5,0.5,0.5h3.2h3.3c0.3,0,0.5-0.2,0.5-0.5V9.1C7.9,8.8,7.7,8.8,7.5,8.9z"/>
	</g>
</g>
</svg>
