<?xml version="1.0" encoding="utf-8"?>
<!-- Generator: Adobe Illustrator 22.0.1, SVG Export Plug-In . SVG Version: 6.00 Build 0)  -->
<svg version="1.1" id="Capa_1" xmlns="http://www.w3.org/2000/svg" xmlns:xlink="http://www.w3.org/1999/xlink" x="0px" y="0px"
	 viewBox="0 0 662 662" style="enable-background:new 0 0 662 662;" xml:space="preserve">
<style type="text/css">
	.st0{fill:#03A6F1;stroke:#03A6F1;stroke-miterlimit:10;}
</style>
<g>
	<g>
		<path class="st0" d="M571.5,133.1h-481C82,133.1,75,140,75,148.6v16c0,8.6,7,15.5,15.5,15.5H91v8.5c0,13,10.6,23.5,23.5,23.5h9
			l14.6,233.5c0.8,12.9,11.6,23,24.5,23s23.7-10.1,24.5-23l10-160.4c0.3-4.1-2.9-7.7-7-8s-7.7,2.9-8,7l-10,160.4c-0.3,5-4.5,9-9.5,9
			s-9.2-3.9-9.5-9l-15-240.5c-0.2-4-3.5-7-7.5-7h-16c-4.7,0-8.5-3.8-8.5-8.5v-8.5h393.3c4.1,0,7.5-3.4,7.5-7.5s-3.4-7.5-7.5-7.5
			H90.5c-0.3,0-0.5-0.2-0.5-0.5v-16c0-0.3,0.2-0.5,0.5-0.5h481c0.3,0,0.5,0.2,0.5,0.5v16c0,0.3-0.2,0.5-0.5,0.5h-40.1
			c-4.1,0-7.5,3.4-7.5,7.5s3.4,7.5,7.5,7.5H556v8.5c0,4.7-3.8,8.5-8.5,8.5h-16c-4,0-7.2,3.1-7.5,7l-15,240.5c-0.3,5-4.5,9-9.5,9
			s-9.2-3.9-9.5-9l-12.6-201.9c-0.5-7.6-6.8-13.6-14.5-13.6c-7.5,0-13.7,5.7-14.4,13.2l-11.5,126c-0.3,2.9-2.7,5.2-5.6,5.2
			c-3,0-5.4-2.2-5.6-5.2l-11.1-121.9c-0.9-9.8-9-17.2-18.9-17.2s-18.2,7.8-18.9,17.7l-20,294c-0.3,5-4.6,9-9.6,9c-5.1,0-9.3-4-9.6-9
			L317.9,255c-1-14.4-13.1-25.7-27.6-25.7c-14.4,0-26.2,10.8-27.5,25.1l-10.4,114c-0.3,2.9-2.7,5.2-5.6,5.2c-2.9,0-5.4-2.2-5.6-5.2
			l-12.3-135.3c-1-11.3-10.4-19.8-21.7-19.8c-11.5,0-21,9-21.8,20.4l-1.2,18.6c-0.3,4.1,2.9,7.7,7,8c4.1,0.2,7.7-2.9,8-7l1.2-18.6
			c0.2-3.6,3.2-6.4,6.8-6.4c3.5,0,6.5,2.7,6.8,6.2l12.3,135.3c1,10.7,9.8,18.8,20.6,18.8c10.8,0,19.6-8.1,20.6-18.8l10.4-114
			c0.6-6.5,6-11.5,12.6-11.5s12.1,5.2,12.6,11.8L322.6,542c0.9,12.9,11.7,23,24.6,23s23.7-10.1,24.6-23l20-294
			c0.1-2.1,1.9-3.7,3.9-3.7c2.1,0,3.7,1.5,3.9,3.6l11.1,121.9c1,10.7,9.8,18.8,20.6,18.8s19.6-8.1,20.6-18.8l10.8-119.2l12.2,195.2
			c0.8,12.9,11.6,23,24.5,23c12.9,0,23.7-10.1,24.5-23l14.6-233.5h9c13,0,23.5-10.6,23.5-23.5v-8.5h0.5c8.6,0,15.5-7,15.5-15.5v-16
			C587,140,580,133.1,571.5,133.1z"/>
	</g>
</g>
</svg>
