<?xml version="1.0" encoding="utf-8"?>
<!-- Generator: Adobe Illustrator 22.0.1, SVG Export Plug-In . SVG Version: 6.00 Build 0)  -->
<svg version="1.1" id="Capa_1" xmlns="http://www.w3.org/2000/svg" xmlns:xlink="http://www.w3.org/1999/xlink" x="0px" y="0px"
	 viewBox="0 0 20 20.1" style="enable-background:new 0 0 20 20.1;" xml:space="preserve">
<style type="text/css">
	.st0{fill:#BFC2C7;}
</style>
<g>
	<path class="st0" d="M3.2,10.1c0.9,0,1.7-0.9,1.7-2.1C4.9,6.9,4.7,6,3.2,6S1.5,6.9,1.5,8.1C1.5,9.2,2.3,10.1,3.2,10.1z"/>
	<path class="st0" d="M6.8,13.2C6.8,13.1,6.8,13.2,6.8,13.2L6.8,13.2z"/>
	<path class="st0" d="M13.2,13.2C13.2,13.2,13.2,13.1,13.2,13.2L13.2,13.2z"/>
	<path class="st0" d="M6.4,13.2c0-2-0.3-2.5-2.3-2.9c0,0-0.3,0.4-0.9,0.4s-0.9-0.4-0.9-0.4c-2,0.4-2.2,0.9-2.3,2.8
		c0,0.2,0,0.2,0,0.1c0,0,0,0.1,0,0.2c0,0,0.5,1,3.2,1c2.7,0,3.2-1,3.2-1c0-0.1,0-0.1,0-0.2C6.4,13.3,6.4,13.3,6.4,13.2z"/>
</g>
</svg>
