<?xml version="1.0" encoding="utf-8"?>
<!-- Generator: Adobe Illustrator 22.0.1, SVG Export Plug-In . SVG Version: 6.00 Build 0)  -->
<svg version="1.1" id="Capa_1" xmlns="http://www.w3.org/2000/svg" xmlns:xlink="http://www.w3.org/1999/xlink" x="0px" y="0px"
	 viewBox="0 0 80.8 80.8" style="enable-background:new 0 0 80.8 80.8;" xml:space="preserve">
<style type="text/css">
	.st0{fill:#03A6F1;stroke:#03A6F1;stroke-width:0.15;stroke-miterlimit:10;}
</style>
<path class="st0" d="M32.8,56.6h-8.9c-0.6,0-1,0.4-1,1v8.1c0,0.3,0.2,0.7,0.5,0.8l4.5,2.8c0.2,0.1,0.3,0.2,0.5,0.2s0.4-0.1,0.5-0.2
	l4.5-2.8c0.3-0.2,0.5-0.5,0.5-0.8v-8.1C33.8,57,33.3,56.6,32.8,56.6z M31.8,65.1l-3.5,2.2l-3.5-2.2v-6.6h6.9L31.8,65.1L31.8,65.1z
	 M26.1,31.7c0.9,8.3,7.5,12.1,12,12.1S49.1,40,50,31.7c1.3-0.7,3.1-2.4,3-5.5c0-0.6-0.1-2.4-1.4-2.9c-1.3-0.5-2.6,0.8-2.9,1.1
	c-0.4,0.4-0.4,1,0,1.4s1,0.4,1.4,0c0.2-0.2,0.5-0.4,0.7-0.5c0.1,0.2,0.1,0.5,0.2,1c0.1,2.9-2,3.8-2.2,3.8L45,30.9
	c-4.6-0.5-9.2-0.5-13.8,0L27.3,30c-0.3-0.1-2.3-1-2.2-3.8c0-0.6,0.1-0.9,0.2-1c0.2,0.1,0.5,0.3,0.7,0.5c0.4,0.4,1,0.4,1.4,0
	s0.4-1,0-1.4c-0.3-0.3-1.6-1.6-2.9-1.1s-1.4,2.3-1.4,2.9C22.9,29.2,24.7,31,26.1,31.7z M28.2,32.3l2,0.4l0.6,5.3
	C29.5,36.6,28.6,34.7,28.2,32.3z M45.3,38l0.6-5.3l2-0.4C47.5,34.7,46.6,36.6,45.3,38z M43.9,32.8L43.1,40l0,0
	c-1.8,1.2-3.8,1.7-5.1,1.7s-3.2-0.5-5.1-1.7l-0.8-7.3C36.1,32.4,40,32.4,43.9,32.8z M32.7,46l-2.9,1.4l-0.3-4.7c0-0.6-0.5-1-1.1-0.9
	c-0.6,0-1,0.5-0.9,1.1l0.1,1c-3.4,1.2-6.5,3.5-8.9,6.4c-0.1-0.8-0.4-1.6-1.1-2.2c-0.3-0.3-0.6-0.5-0.9-0.6V40
	c0.3,0.1,0.6,0.2,0.9,0.5c0.7,0.6,1,1.6,1,3.1v3.2c0,0.6,0.4,1,1,1s1-0.4,1-1v-3.2c0-2.1-0.6-3.6-1.7-4.6c-0.7-0.6-1.5-0.9-2.2-1
	c0-0.5-0.5-1-1-1H4.3c-0.6,0-1,0.4-1,1v3c0,0.6,0.4,1,1,1h3.1c0.1,1.2,0.6,4,2.3,5.5c-0.2,0.1-0.4,0.3-0.6,0.4
	c-1.2,1.2-1.2,2.9-1.2,4.4v6.9c0,1.8,0.9,3.4,2.3,4.4c-0.6,0.9-1.1,1.6-1.1,1.6c-3,3.3-2.7,9.7-2.7,9.9c0,0.5,0.5,0.9,1,0.9h13.1
	c0.5,0,1-0.4,1-0.9c0-0.3,0.3-6.6-2.7-9.9c0,0-0.9-1.1-1.6-2.2c1-1,1.6-2.4,1.6-3.9v-5.8c2.1-3.4,5.3-6.1,8.9-7.5l0.2,3.1
	c0,0.3,0.2,0.6,0.5,0.8c0.2,0.1,0.3,0.1,0.5,0.1c0.1,0,0.3,0,0.4-0.1l4.2-2c0.5-0.2,0.7-0.8,0.5-1.3C33.8,46,33.2,45.7,32.7,46z
	 M5.3,38.7h1.1v1H5.3V38.7z M12.6,46.6c-3.3,0-3.4-5.8-3.4-5.8c0-0.5-0.4-0.9-0.9-1v-1.1h6.4v7.9h-1.4l0,0l0,0
	C13.3,46.6,12.6,46.6,12.6,46.6z M9.9,52.3c0-1.2,0-2.3,0.6-3c0.5-0.5,1.4-0.7,2.8-0.7l0,0c1.4,0,2.4,0.3,2.8,0.7s0.5,1.1,0.6,1.8
	h-2.3c-0.6,0-1,0.4-1,1s0.4,1,1,1h2.3v1.8h-2.3c-0.6,0-1,0.4-1,1s0.4,1,1,1h2.3v1.7h-2.3c-0.6,0-1,0.4-1,1s0.4,1,1,1h2
	c-0.5,1.2-1.7,2-3.1,2c-1.9,0-3.4-1.5-3.4-3.5L9.9,52.3z M8.4,74.2c0-0.4,0-0.9,0.1-1.5h11c0,0.6,0.1,1.1,0.1,1.5H8.4z M17.4,66.6
	c1,1.1,1.5,2.6,1.8,4.1H8.8c0.3-1.5,0.9-3.1,1.9-4.1c0,0,0.8-1,1.5-2c0.4,0.1,0.9,0.2,1.3,0.2c0.8,0,1.5-0.2,2.2-0.5
	C16.3,65.4,17.3,66.5,17.4,66.6z M24.5,20v1c0,0.6,0.4,1,1,1s1-0.4,1-1v-1.4c3-1.2,7.3-2.3,11.6-2.3s8.6,1.1,11.6,2.3V21
	c0,0.6,0.4,1,1,1s1-0.4,1-1v-1c0.3-0.2,0.4-0.5,0.4-0.8V8.5c0-0.4-0.2-0.8-0.6-0.9c-3.2-1.4-8.3-2.9-13.4-2.9S27.8,6.2,24.7,7.6
	C24.3,7.7,24,8.1,24,8.5v10.7C24,19.5,24.2,19.8,24.5,20z M26,9.1c3-1.2,7.6-2.5,12-2.5s9,1.2,12,2.5v8.5c-3.2-1.2-7.6-2.3-12-2.3
	s-8.9,1.1-12,2.3V9.1z M76.6,36.2H51.4c-0.6,0-1,0.4-1,1v3.5c0,0.6,0.4,1,1,1h2.3l9.7,6.9V58c-1.7,0.1-2.9,0.5-3.7,1.3
	c-1.2,1.2-1.2,2.9-1.2,4.4v6.9c0,3,2.4,5.4,5.5,5.4s5.5-2.4,5.5-5.4v-6.9c0-1.5,0-3.2-1.2-4.4c-0.7-0.7-1.6-1.1-2.8-1.2v-9.5
	c4.2-3.3,7.9-6.1,8.9-6.9h2.3c0.6,0,1-0.4,1-1v-3.5C77.6,36.6,77.1,36.2,76.6,36.2z M67.4,63.7v7c0,1.9-1.5,3.4-3.5,3.4
	c-1.4,0-2.6-0.8-3.1-2h2c0.6,0,1-0.4,1-1s-0.4-1-1-1h-2.3v-1.7h2.3c0.6,0,1-0.4,1-1s-0.4-1-1-1h-2.3v-1.8h2.3c0.6,0,1-0.4,1-1
	s-0.4-1-1-1h-2.3c0-0.7,0.2-1.4,0.6-1.8c0.5-0.5,1.5-0.7,2.9-0.7c1.4,0,2.4,0.3,2.9,0.7C67.4,61.4,67.4,62.5,67.4,63.7z M75.6,39.7
	h-1.7c-0.2,0-0.4,0.1-0.6,0.2c0,0-4,3.1-8.9,6.9l-9.8-7c-0.2-0.1-0.4-0.2-0.6-0.2h-1.7v-1.5h23.2L75.6,39.7L75.6,39.7z M48.3,45.7
	l-0.2,3.2c0,0.3-0.2,0.6-0.5,0.8c-0.2,0.1-0.3,0.1-0.5,0.1c-0.1,0-0.3,0-0.4-0.1l-4.2-2c-0.5-0.2-0.7-0.8-0.5-1.3s0.8-0.7,1.3-0.5
	l2.9,1.4l0.3-4.7c0-0.6,0.5-1,1.1-0.9c0.6,0,1,0.5,0.9,1.1v0.8c5.8,2,10.6,6.7,12.6,12.5c0.2,0.5-0.1,1.1-0.6,1.3
	c-0.1,0-0.2,0.1-0.3,0.1c-0.4,0-0.8-0.3-0.9-0.7C57.4,51.8,53.3,47.6,48.3,45.7z M39.1,50.5v24.4c0,0.6-0.4,1-1,1s-1-0.4-1-1V50.5
	c0-0.6,0.4-1,1-1S39.1,49.9,39.1,50.5z M52,33.3h24c0.6,0,1,0.4,1,1s-0.4,1-1,1H52c-0.6,0-1-0.4-1-1S51.4,33.3,52,33.3z"/>
</svg>
