<?xml version="1.0" encoding="utf-8"?>
<!-- Generator: Adobe Illustrator 22.0.1, SVG Export Plug-In . SVG Version: 6.00 Build 0)  -->
<svg version="1.1" id="Capa_1" xmlns="http://www.w3.org/2000/svg" xmlns:xlink="http://www.w3.org/1999/xlink" x="0px" y="0px"
	 viewBox="0 0 68.7 68.7" style="enable-background:new 0 0 68.7 68.7;" xml:space="preserve">
<style type="text/css">
	.st0{fill:#03A6F1;stroke:#03A6F1;stroke-width:0.25;stroke-miterlimit:10;}
</style>
<path class="st0" d="M64.9,31.3c-0.4-0.6-0.9-1.2-1-1.6c-0.1-0.5,0.2-1.2,0.4-1.9c0.4-1,0.7-2.2,0.4-3.3c-0.4-1.1-1.4-1.8-2.3-2.5
	c-0.6-0.4-1.2-0.9-1.4-1.3s-0.2-1.2-0.2-1.9c0-1.1,0-2.3-0.6-3.2c-0.7-0.9-1.9-1.3-2.9-1.6c-0.7-0.2-1.4-0.4-1.8-0.8
	c-0.3-0.3-0.6-1.1-0.8-1.8c-0.3-1-0.7-2.2-1.6-2.9c-0.9-0.7-2.2-0.7-3.2-0.6c-0.7,0-1.5,0-1.9-0.2s-0.9-0.8-1.3-1.4
	c-0.6-0.9-1.3-1.9-2.5-2.3c-1.1-0.4-2.3,0-3.3,0.4c-0.7,0.2-1.4,0.5-1.9,0.4s-1.1-0.5-1.6-1c-0.9-0.7-1.9-1.4-3-1.4
	s-2.2,0.7-3.1,1.4c-0.6,0.4-1.2,0.9-1.6,1c-0.5,0.1-1.2-0.2-1.9-0.4c-1-0.4-2.2-0.7-3.3-0.4c-1.1,0.4-1.8,1.4-2.5,2.3
	c-0.4,0.6-0.9,1.2-1.3,1.4c-0.4,0.2-1.2,0.2-1.9,0.2c-1.1,0-2.3,0-3.2,0.6c-0.9,0.7-1.3,1.9-1.6,2.9c-0.2,0.7-0.4,1.4-0.8,1.8
	c-0.3,0.3-1.1,0.6-1.8,0.8c-1,0.3-2.2,0.7-2.9,1.6c-0.7,0.9-0.7,2.2-0.6,3.2c0,0.7,0,1.5-0.2,1.9S6.9,21.6,6.3,22
	c-0.9,0.6-1.9,1.3-2.3,2.5c-0.4,1.1,0,2.3,0.4,3.3c0.2,0.7,0.5,1.4,0.4,1.9s-0.5,1.1-1,1.6c-0.7,0.9-1.4,1.9-1.4,3.1
	s0.7,2.2,1.4,3.1c0.4,0.6,0.9,1.2,1,1.6l2-0.3c-0.2-1-0.8-1.8-1.3-2.5s-1-1.3-1-1.8s0.5-1.2,1-1.8c0.6-0.8,1.2-1.6,1.3-2.5
	c0.2-1-0.2-2-0.5-2.9c-0.3-0.8-0.5-1.5-0.4-2c0.2-0.5,0.8-1,1.5-1.4c0.8-0.6,1.6-1.1,2.1-2C9.9,21,9.9,20,9.9,19c0-0.8,0-1.6,0.3-2
	s1.1-0.6,1.9-0.9c0.9-0.3,1.9-0.6,2.6-1.3s1-1.7,1.3-2.6c0.2-0.8,0.5-1.6,0.9-1.9c0.4-0.3,1.2-0.3,2-0.3c1,0,2,0,2.9-0.4
	s1.5-1.3,2-2.1c0.5-0.7,0.9-1.4,1.4-1.5c0.5-0.2,1.2,0.1,2,0.4C28,6.5,29,6.8,30,6.7c1-0.2,1.8-0.8,2.5-1.3s1.3-1,1.8-1
	s1.2,0.5,1.8,1c0.8,0.6,1.6,1.2,2.5,1.3c1,0.2,2-0.2,2.9-0.5c0.8-0.3,1.5-0.5,2-0.4c0.5,0.2,1,0.8,1.4,1.5c0.6,0.8,1.1,1.6,2,2.1
	c0.9,0.4,1.9,0.4,2.9,0.4c0.8,0,1.6,0,2,0.3s0.6,1.1,0.9,1.9c0.3,0.9,0.6,1.9,1.3,2.6s1.7,1,2.6,1.3c0.8,0.2,1.6,0.5,1.9,0.9
	c0.3,0.4,0.3,1.2,0.3,2c0,1,0,2,0.4,2.9s1.3,1.5,2.1,2c0.7,0.5,1.4,0.9,1.5,1.4c0.2,0.5-0.1,1.2-0.4,2C62.2,28,61.8,29,62,29.9
	c0.2,1,0.8,1.8,1.3,2.5c0.5,0.7,1,1.3,1,1.8s-0.5,1.2-1,1.8c-0.6,0.8-1.2,1.6-1.3,2.5l2,0.3c0.1-0.5,0.5-1.1,1-1.6
	c0.7-0.9,1.4-1.9,1.4-3.1S65.6,32.2,64.9,31.3z M56.7,52.9c-0.9,0.3-1.9,0.6-2.6,1.3c-0.7,0.7-1,1.7-1.3,2.6
	c-0.2,0.8-0.5,1.6-0.9,1.9c-0.4,0.3-1.2,0.3-2,0.3c-1,0-2,0-2.9,0.4s-1.4,1.3-2,2.1c-0.5,0.7-0.9,1.4-1.4,1.5
	c-0.5,0.2-1.2-0.1-2-0.4c-0.9-0.3-1.9-0.6-2.9-0.5c-1,0.2-1.8,0.8-2.5,1.3s-1.3,1-1.8,1s-1.2-0.5-1.8-1c-0.8-0.6-1.6-1.2-2.5-1.3
	c-1-0.1-2,0.2-2.9,0.5c-0.8,0.3-1.5,0.5-2,0.4c-0.5-0.2-1-0.8-1.4-1.5c-0.6-0.8-1.1-1.6-2-2.1S19.9,59,18.9,59c-0.8,0-1.6,0-2-0.3
	s-0.6-1.1-0.9-1.9c-0.3-0.9-0.6-1.9-1.3-2.6c-0.7-0.7-1.7-1-2.6-1.3c-0.8-0.2-1.6-0.5-1.9-0.9l-1.6,1.2c0.7,0.9,1.9,1.3,2.9,1.6
	c0.7,0.2,1.4,0.4,1.8,0.8c0.3,0.3,0.6,1.1,0.8,1.8c0.3,1,0.7,2.2,1.6,2.9c0.9,0.7,2.2,0.7,3.3,0.6c0.7,0,1.5,0,1.9,0.2
	s0.9,0.8,1.3,1.4c0.6,0.9,1.3,1.9,2.5,2.3c1.1,0.4,2.3,0,3.3-0.4c0.7-0.2,1.4-0.5,1.9-0.4s1.1,0.5,1.6,1c0.9,0.7,1.9,1.4,3.1,1.4
	s2.2-0.7,3.1-1.4c0.6-0.4,1.2-0.9,1.6-1c0.5-0.1,1.2,0.2,1.9,0.4c1,0.4,2.2,0.8,3.3,0.4s1.8-1.4,2.5-2.3c0.4-0.6,0.9-1.2,1.3-1.4
	c0.4-0.2,1.2-0.2,1.9-0.2c1.1,0,2.3,0,3.2-0.6c0.9-0.7,1.3-1.9,1.6-2.9c0.2-0.7,0.4-1.4,0.8-1.8c0.3-0.3,1.1-0.6,1.8-0.8
	c1-0.3,2.2-0.7,2.9-1.6L58.6,52C58.3,52.4,57.5,52.6,56.7,52.9z"/>
<path class="st0" d="M10.3,48.3v-2c0-0.6-0.4-1-1-1h-2v2h1v1c0,0.6-0.4,1-1,1s-1-0.4-1-1v-6c0-0.6,0.4-1,1-1s1,0.4,1,1v1h2v-1
	c0-1.7-1.3-3-3-3s-3,1.3-3,3v6c0,1.7,1.3,3,3,3S10.3,50,10.3,48.3z M11.3,39.3v9c0,1.7,1.3,3,3,3s3-1.3,3-3v-9h-2v9c0,0.6-0.4,1-1,1
	s-1-0.4-1-1v-9H11.3z M18.3,42.3v9h2v-2h2v2h2v-9c0-1.7-1.3-3-3-3S18.3,40.7,18.3,42.3z M22.3,42.3v5h-2v-5c0-0.6,0.4-1,1-1
	S22.3,41.8,22.3,42.3z M32.3,42.3v9h2v-2h2v2h2v-9c0-1.7-1.3-3-3-3S32.3,40.7,32.3,42.3z M35.3,41.3c0.6,0,1,0.4,1,1v5h-2v-5
	C34.3,41.8,34.8,41.3,35.3,41.3z M25.3,40.3v5l0,0v6h2v-3.1l2.2,2.8c0.2,0.2,0.5,0.4,0.8,0.4h1v-2h-0.5l-2.4-3c1.7-0.3,3-1.7,3-3.5
	c0-1.9-1.6-3.5-3.5-3.5h-1.5C25.8,39.3,25.3,39.8,25.3,40.3z M27.3,41.3h0.5c0.8,0,1.5,0.7,1.5,1.5s-0.7,1.5-1.5,1.5h-0.5V41.3z
	 M43.3,45.1l-2-5.1c-0.2-0.4-0.7-0.7-1.1-0.6c-0.5,0.1-0.8,0.5-0.8,1v11h2v-5.8l2.1,5.2c0.2,0.4,0.5,0.6,0.9,0.6c0.1,0,0.1,0,0.2,0
	c0.5-0.1,0.8-0.5,0.8-1v-11h-2v5.7H43.3z M50.3,41.3h2v-2h-6v2h2v10h2V41.3z M58.3,41.3v-2h-4c-0.6,0-1,0.4-1,1v10c0,0.6,0.4,1,1,1
	h4v-2h-3v-3h3v-2h-3v-3H58.3z M59.3,40.3v10c0,0.6,0.4,1,1,1h4v-2h-3v-3h3v-2h-3v-3h3v-2h-4C59.8,39.3,59.3,39.8,59.3,40.3z"/>
<path class="st0" d="M59.3,34.3c0-13.8-11.2-25-25-25s-25,11.2-25,25c0,1,0.1,2.1,0.2,3.1l2-0.2c-0.1-1-0.2-2-0.2-2.9
	c0-12.7,10.3-23,23-23s23,10.3,23,23c0,0.9-0.1,1.9-0.2,2.9l2,0.2C59.3,36.4,59.3,35.3,59.3,34.3z M49.6,54.1l-1.2-1.6
	c-4.1,3.1-8.9,4.8-14,4.8s-10-1.7-14-4.8l-1.2,1.6c4.4,3.4,9.7,5.2,15.3,5.2S45.2,57.5,49.6,54.1z"/>
<path class="st0" d="M24.3,23.3h-2v2h1v10h2v-11C25.3,23.8,24.9,23.3,24.3,23.3z M29.8,23.3c-1.9,0-3.5,1.6-3.5,3.5v5
	c0,1.9,1.6,3.5,3.5,3.5s3.5-1.6,3.5-3.5v-5C33.3,24.9,31.8,23.3,29.8,23.3z M31.3,31.8c0,0.8-0.7,1.5-1.5,1.5s-1.5-0.7-1.5-1.5v-5
	c0-0.8,0.7-1.5,1.5-1.5s1.5,0.7,1.5,1.5V31.8z M37.8,23.3c-1.9,0-3.5,1.6-3.5,3.5v5c0,1.9,1.6,3.5,3.5,3.5s3.5-1.6,3.5-3.5v-5
	C41.3,24.9,39.8,23.3,37.8,23.3z M39.3,31.8c0,0.8-0.7,1.5-1.5,1.5s-1.5-0.7-1.5-1.5v-5c0-0.8,0.7-1.5,1.5-1.5s1.5,0.7,1.5,1.5V31.8
	z"/>
<path class="st0" d="M44.4,33.9l4-8l1.8,0.9l-4,8L44.4,33.9z"/>
<rect x="43.3" y="27.3" class="st0" width="2" height="2"/>
<rect x="49.3" y="31.3" class="st0" width="2" height="2"/>
</svg>
