<?xml version="1.0" encoding="utf-8"?>
<!-- Generator: Adobe Illustrator 22.0.1, SVG Export Plug-In . SVG Version: 6.00 Build 0)  -->
<svg version="1.1" id="Слой_1" xmlns="http://www.w3.org/2000/svg" xmlns:xlink="http://www.w3.org/1999/xlink" x="0px" y="0px"
	 viewBox="0 0 512 511" style="enable-background:new 0 0 512 511;" xml:space="preserve">
<style type="text/css">
	.st0{fill:#03A6F1;}
</style>
<path class="st0" d="M367,253.6c-4.1,0-7.5,3.4-7.5,7.5c0,4.1,3.4,7.5,7.5,7.5h12.4c4.1,0,7.5-3.4,7.5-7.5c0-4.1-3.4-7.5-7.5-7.5
	H367z"/>
<path class="st0" d="M394,357.6c-14.2,0-25.8,11.6-25.8,25.8c0,14.2,11.6,25.7,25.8,25.7c14.2,0,25.7-11.6,25.7-25.7
	C419.8,369.1,408.2,357.6,394,357.6z M394,394.1c-5.9,0-10.8-4.8-10.8-10.7s4.8-10.7,10.8-10.7c5.9,0,10.7,4.8,10.7,10.7
	S399.9,394.1,394,394.1z"/>
<path class="st0" d="M111,357.6c-14.2,0-25.7,11.6-25.7,25.8c0,14.2,11.6,25.7,25.7,25.7s25.7-11.6,25.7-25.7
	C136.8,369.1,125.2,357.6,111,357.6z M111,394.1c-5.9,0-10.7-4.8-10.7-10.7s4.8-10.7,10.7-10.7s10.7,4.8,10.7,10.7
	S117,394.1,111,394.1z"/>
<path class="st0" d="M12.2,377.2h40.9c-0.2,2-0.3,4-0.3,6.1c0,32.1,26.1,58.2,58.2,58.2s58.2-26.1,58.2-58.2c0-2.1-0.1-4.1-0.3-6.1
	h39.3c4.1,0,7.5-3.4,7.5-7.5c0-4.1-3.4-7.5-7.5-7.5h-42.9c-3.2-8.1-8.4-15.9-15.3-22.1h159.5v22.1h-66.3c-4.1,0-7.5,3.4-7.5,7.5
	c0,4.1,3.4,7.5,7.5,7.5h92.9c-3.6,34.5,23.5,64.3,57.9,64.3c32.1,0,58.2-26.1,58.2-58.2c0-2.1-0.1-4.1-0.3-6.1h45.9
	c7.3,0,13.2-5.9,13.2-13.2v-25.6c0-7.3-5.9-13.2-13.2-13.2h-1.4v-18.9c0-4.1-3.4-7.5-7.5-7.5c-4.1,0-7.5,3.4-7.5,7.5v18.9
	c-7,0-150.1,0-156.8,0v-192h88.4c5.2,0,9.7,3.5,11.1,8.4l4.4,16.1h-64.7c-8,0-14.6,6.5-14.6,14.6V222c0,8,6.5,14.6,14.6,14.6h91.6
	c3.5,3.3,5.6,4.3,13.8,9.2c7.6,4.6,12.4,12.9,12.4,21.8v3.6c0,4.1,3.4,7.5,7.5,7.5c4.1,0,7.5-3.4,7.5-7.5v-3.6
	c0-14.1-7.5-27.4-19.7-34.7c-7.5-4.5-14.2-7.4-16.7-16.6c-4.9-17.8-16.5-60.4-21.6-78.8c-3.1-11.5-13.6-19.5-25.5-19.5h-11v-14.4
	c0-7.3-5.9-13.2-13.2-13.2H363c-7.3,0-13.2,5.9-13.2,13.2v14.4h-25.2V85.5h14.7c4.1,0,7.5-3.4,7.5-7.5s-3.4-7.5-7.5-7.5
	c-8.7,0-192.2,0-200.4,0c-5.5,0-10.9,1.8-15.3,5.1L18,155.5c-4.9,3.7-7.8,9.5-7.8,15.7v154.1c-6.3,1-11.2,6.5-11.2,13.1V364
	C-1,371.3,4.9,377.2,12.2,377.2z M364,221.6v-49h68.4c13.9,50.7,13.1,48,13.4,49H364z M364.7,105.5h22.1v12.6h-22.1V105.5z
	 M56.8,362.2H14v-22.1h58.1C65.2,346.3,60,354.1,56.8,362.2z M111,426.5c-23.8,0-43.2-19.4-43.2-43.2c0-24,19.6-43.2,43.2-43.2
	c23.4,0,43.2,19.1,43.2,43.2C154.3,407.1,134.9,426.5,111,426.5z M394,426.5c-23.8,0-43.2-19.4-43.2-43.2
	c0-24.3,19.9-43.2,43.2-43.2c23.6,0,43.2,19.3,43.2,43.2C437.2,407.1,417.8,426.5,394,426.5z M496,340.1v22.1h-47.7
	c-3.2-8.1-8.4-15.9-15.3-22.1H496z M355.1,340.1c-7,6.3-12.2,14.1-15.3,22.1h-15.3v-22.1H355.1z M25.2,171.1c0-1.4,0.7-2.8,1.8-3.7
	l105.5-79.8c1.8-1.3,4-2.1,6.2-2.1h170.7v239.6c-24.1,0-274.4,0-284.3,0V171.1z"/>
<path class="st0" d="M88,162c-4.1,0-7.5,3.4-7.5,7.5v119.1c0,4.1,3.4,7.5,7.5,7.5c4.1,0,7.5-3.4,7.5-7.5V169.5
	C95.5,165.4,92.2,162,88,162z"/>
<path class="st0" d="M133.9,296.2c4.1,0,7.5-3.4,7.5-7.5v-144c0-4.1-3.4-7.5-7.5-7.5c-4.1,0-7.5,3.4-7.5,7.5v144
	C126.4,292.8,129.8,296.2,133.9,296.2z"/>
<path class="st0" d="M179.8,296.2c4.1,0,7.5-3.4,7.5-7.5v-144c0-4.1-3.4-7.5-7.5-7.5s-7.5,3.4-7.5,7.5v144
	C172.3,292.8,175.7,296.2,179.8,296.2z"/>
<path class="st0" d="M225.7,296.2c4.1,0,7.5-3.4,7.5-7.5v-144c0-4.1-3.4-7.5-7.5-7.5s-7.5,3.4-7.5,7.5v144
	C218.2,292.8,221.6,296.2,225.7,296.2z"/>
<path class="st0" d="M271.6,296.2c4.1,0,7.5-3.4,7.5-7.5v-144c0-4.1-3.4-7.5-7.5-7.5c-4.1,0-7.5,3.4-7.5,7.5v144
	C264.1,292.8,267.5,296.2,271.6,296.2z"/>
</svg>
