<?xml version="1.0" encoding="utf-8"?>
<!-- Generator: Adobe Illustrator 22.0.1, SVG Export Plug-In . SVG Version: 6.00 Build 0)  -->
<svg version="1.1" id="Capa_1" xmlns="http://www.w3.org/2000/svg" xmlns:xlink="http://www.w3.org/1999/xlink" x="0px" y="0px"
	 viewBox="0 0 92.2 14.7" style="enable-background:new 0 0 92.2 14.7;" xml:space="preserve">
<style type="text/css">
	.st0{fill:#03A6F1;}
</style>
<g transform="matrix(-0.9999 1.22452e-16 -1.22452e-16 -0.9999 458.8 463.798)">
	<g>
		<path class="st0" d="M456.7,451.5c-1.2-0.4-2.4,0.2-2.8,1.4c-1.1,3.1-3,4.6-6,4.6c-2.9,0-5.5-2.1-6.6-5.2
			c-0.3-0.9-1.2-1.5-2.1-1.5c0,0,0,0,0,0h0c-0.9,0-1.8,0.6-2.1,1.5c-1.1,3.1-3.7,5.2-6.6,5.2s-5.5-2.1-6.6-5.2
			c-0.3-0.9-1.2-1.5-2.1-1.5c0,0,0,0,0,0h0c-0.9,0-1.8,0.6-2.1,1.5c-1.1,3.1-3.7,5.2-6.6,5.2s-5.5-2.1-6.6-5.2
			c-0.3-0.9-1.2-1.5-2.1-1.5c0,0,0,0,0,0h0c-0.9,0-1.8,0.6-2.1,1.5c-1.1,3.1-3.7,5.2-6.6,5.2c-2.9,0-5.5-2.1-6.6-5.2
			c-0.3-0.9-1.2-1.5-2.1-1.5c0,0,0,0,0,0h0c-0.9,0-1.8,0.6-2.1,1.5c-1.1,3.1-3.7,5.2-6.6,5.2c-3,0-4.9-1.5-6-4.6
			c-0.4-1.2-1.6-1.8-2.8-1.4c-1.2,0.4-1.8,1.6-1.4,2.8c1.7,4.9,5.3,7.6,10.1,7.6c3.4,0,6.5-1.7,8.7-4.4c2.1,2.7,5.3,4.4,8.7,4.4
			c3.4,0,6.5-1.7,8.7-4.4c2.1,2.7,5.3,4.4,8.7,4.4s6.5-1.7,8.7-4.4c2.1,2.7,5.3,4.4,8.7,4.4s6.5-1.7,8.7-4.4
			c2.1,2.7,5.3,4.4,8.7,4.4c4.9,0,8.5-2.7,10.1-7.6C458.4,453.1,457.8,451.9,456.7,451.5z"/>
	</g>
</g>
</svg>
