<?xml version="1.0" encoding="utf-8"?>
<!-- Generator: Adobe Illustrator 22.0.1, SVG Export Plug-In . SVG Version: 6.00 Build 0)  -->
<svg version="1.1" id="Capa_1" xmlns="http://www.w3.org/2000/svg" xmlns:xlink="http://www.w3.org/1999/xlink" x="0px" y="0px"
	 viewBox="0 0 480 480" style="enable-background:new 0 0 480 480;" xml:space="preserve">
<style type="text/css">
	.st0{fill:#03A6F1;}
</style>
<g>
	<g>
		<path class="st0" d="M432,216V8c0-4.4-3.6-8-8-8H24c-4.4,0-8,3.6-8,8v464c0,4.4,3.6,8,8,8h400c4.4,0,8-3.6,8-8V328h-16v136H32V16
			h384v200H432z"/>
	</g>
</g>
<g>
	<g>
		<path class="st0" d="M400,208V40c0-4.4-3.6-8-8-8H56c-4.4,0-8,3.6-8,8v400c0,4.4,3.6,8,8,8h336c4.4,0,8-3.6,8-8v-96h-16v88H64V48
			h320v160H400z"/>
	</g>
</g>
<g>
	<g>
		
			<rect x="84.4" y="100" transform="matrix(0.7071 -0.7071 0.7071 0.7071 -40.0499 119.3093)" class="st0" width="79.2" height="16"/>
	</g>
</g>
<g>
	<g>
		
			<rect x="74.5" y="124" transform="matrix(0.7071 -0.7071 0.7071 0.7071 -49.9838 143.3159)" class="st0" width="147.1" height="16"/>
	</g>
</g>
<g>
	<g>
		<path class="st0" d="M176,368v24c0,4.4-3.6,8-8,8s-8-3.6-8-8v-32c0-13.3-10.7-24-24-24s-24,10.7-24,24v8c0,4.4-3.6,8-8,8
			s-8-3.6-8-8v-40H80v40c0,13.3,10.7,24,24,24s24-10.7,24-24v-8c0-4.4,3.6-8,8-8s8,3.6,8,8v32c0,13.3,10.7,24,24,24s24-10.7,24-24
			v-24H176z"/>
	</g>
</g>
<g>
	<g>
		<path class="st0" d="M464,248v-16h-64c0-2.2-0.9-4.4-2.6-5.9c-1.6-1.5-3.8-2.3-6.1-2.1l-90.6,7.5l-13.6-27.2
			c-1.4-2.7-4.1-4.4-7.1-4.4h-24c-1.3,0-2.6,0.4-3.7,1L239,187.7l-5.8-17.5l52.5-52.5c3.1-3.1,3.1-8.2,0-11.3l-24-24
			c-3.1-3.1-8.2-3.1-11.3,0l-152,151.8c-3.1,3.1-3.1,8.2,0,11.3l24,24.2c1.5,1.5,3.5,2.4,5.7,2.4c2.1,0,4.2-0.8,5.7-2.3l52.5-52.5
			l17.5,5.8l9.6,9.6c-3.1,1.1-5.2,4.1-5.3,7.4v64c0,4.2,3.1,7.6,7.3,8l85.1,7.7l30,30c3.1,3.1,8.2,3.1,11.3,0l24-24l25.6,2.3
			c0.2,0,0.5,0,0.7,0c4.4,0,8-3.6,8-8v-8h64v-16h-64v-48H464z M128,252.7l-12.7-12.9L256,99.3l12.7,12.7L128,252.7z M213.7,210.3
			c-0.9-0.9-2-1.5-3.1-1.9l-11.7-3.9l10.8-10.8l10.8-10.8l3.9,11.7c0.4,1.2,1.1,2.3,1.9,3.1l21.7,21.7V232h-12.7L213.7,210.3z
			 M336,332.7L325.3,322l19.7,1.8L336,332.7z M384,311.2l-160-14.5V248h32c4.4,0,8-3.6,8-8v-24h11.1l13.7,27.6
			c1.5,2.9,4.6,4.7,7.8,4.4l87.4-7.3V311.2z"/>
	</g>
</g>
<g>
	<g>
		
			<rect x="320" y="114.7" transform="matrix(0.7071 -0.7071 0.7071 0.7071 -17.0491 278.7859)" class="st0" width="16" height="90.5"/>
	</g>
</g>
<g>
	<g>
		
			<rect x="168" y="266.7" transform="matrix(0.7071 -0.7071 0.7071 0.7071 -169.0577 215.8149)" class="st0" width="16" height="90.5"/>
	</g>
</g>
</svg>
